<svg viewBox="0 0 48 48" fill="none" xmlns="http://www.w3.org/2000/svg">
  <!-- Grove Logo: Layered teardrop/leaf shapes forming a tree -->
  <!-- Back layer (darker) -->
  <path
    d="M24 4c-6 9-18 14-18 24 0 8 8 16 18 16s18-8 18-16c0-10-12-15-18-24z"
    fill="#15803d"
    opacity="0.3"
  />
  <!-- Middle layer -->
  <path
    d="M24 8c-5 7.5-14 11.5-14 19 0 6.5 6 12.5 14 12.5s14-6 14-12.5c0-7.5-9-11.5-14-19z"
    fill="#16a34a"
    opacity="0.6"
  />
  <!-- Front layer (brightest) -->
  <path
    d="M24 12c-4 6-10 9-10 15 0 5 4 9 10 9s10-4 10-9c0-6-6-9-10-15z"
    fill="#22c55e"
  />
  <!-- Stem/trunk detail -->
  <path
    d="M24 30v10"
    stroke="#15803d"
    stroke-width="2"
    stroke-linecap="round"
  />
</svg>
